<svg width="106" height="27" viewBox="0 0 106 27" fill="none" xmlns="http://www.w3.org/2000/svg">
<path d="M100.619 4.39209V15.1511C100.619 17.6826 101.811 18.8743 104.343 18.8743H105.869V17.1238H102.929C102.816 17.1238 102.742 17.0857 102.668 17.0497C102.594 16.9756 102.594 16.9016 102.594 16.7894V9.2329H105.534V7.48242H102.594V4.39209H100.619Z" fill="#252429"/>
<path d="M99.0279 14.3681H96.943C96.4583 16.3789 95.3788 17.4584 93.2198 17.4584C90.8364 17.4584 89.2743 15.8582 89.2743 13.1764C89.2743 10.4586 90.8385 8.89436 93.2198 8.89436C95.2306 8.89436 96.3461 9.82569 96.6064 11.6503H98.6914C98.5432 9.97386 97.6119 8.55993 96.0476 7.74078C95.2285 7.33226 94.2972 7.146 93.2177 7.146C90.8724 7.146 89.0119 8.15141 88.0424 9.97598C87.5217 10.8692 87.2974 11.9487 87.2974 13.1785C87.2974 15.6359 88.3388 17.4965 90.1273 18.4638C91.0206 18.9485 92.026 19.2089 93.2177 19.2089C96.6086 19.2068 98.5432 17.3462 99.0279 14.3681Z" fill="#252429"/>
<path d="M83.8091 15.2613C83.3625 16.6392 82.4311 17.4584 80.5325 17.4584C78.1872 17.4584 76.7352 16.0064 76.587 13.7352H85.6696V12.3953C85.6696 10.4967 84.8886 8.82239 83.2863 7.85296C82.4671 7.36825 81.4617 7.146 80.3081 7.146C77.9629 7.146 76.2124 8.15141 75.2451 9.97598C74.7603 10.8692 74.5 11.9487 74.5 13.1785C74.5 15.6359 75.5414 17.4965 77.366 18.4638C78.2973 18.9485 79.3387 19.2089 80.5304 19.2089C83.7329 19.2089 85.3691 17.3843 85.8919 15.2634H83.8091V15.2613ZM80.3102 8.89648C82.5073 8.89648 83.5106 10.0882 83.5106 12.0609H76.623C76.8855 10.0501 78.2994 8.89648 80.3102 8.89648Z" fill="#252429"/>
<path d="M67.735 18.8722H69.7078V12.3952C69.7078 10.2743 70.6391 9.41707 72.6118 9.41707H73.8395V7.44434H72.9082C71.3439 7.44434 70.5629 7.85497 70.0782 8.97045C70.0041 9.08263 69.966 9.15672 69.8538 9.15672C69.7416 9.15672 69.7056 9.11862 69.7056 9.00855V7.48244H67.7329V18.8722H67.735Z" fill="#252429"/>
<path d="M65.2609 3.08838H62.4309V5.73209H65.2609V3.08838Z" fill="#252429"/>
<path d="M64.8521 7.48242H62.8794V18.8743H64.8521V7.48242Z" fill="#252429"/>
<path d="M58.0237 3.08838V8.71024C58.0237 8.82243 57.9856 8.89651 57.8755 8.89651C57.7654 8.89651 57.6892 8.85841 57.6152 8.74834C56.7219 7.66884 55.4562 7.14814 53.856 7.14814C51.9192 7.14814 50.1328 8.04138 49.0914 9.82784C48.5326 10.7592 48.2722 11.8747 48.2722 13.1785C48.2722 15.8222 49.4639 17.6468 51.1382 18.54C51.9954 18.9867 52.8887 19.211 53.856 19.211C55.4562 19.211 56.7219 18.6903 57.6152 17.6108C57.6892 17.4986 57.7633 17.4627 57.8755 17.4627C57.9877 17.4627 58.0237 17.5008 58.0237 17.6108V18.8766H59.9964V3.08838H58.0237ZM54.1883 17.4584C51.8049 17.4584 50.2428 15.8582 50.2428 13.1764C50.2428 10.4586 51.807 8.89439 54.1883 8.89439C56.5335 8.89439 58.1337 10.4586 58.1337 13.1764C58.1337 15.8582 56.5335 17.4584 54.1883 17.4584Z" fill="#252429"/>
<path d="M6.54208 18.8723H8.51481V12.3953C8.51481 10.0501 9.78057 8.89647 11.4548 8.89647C13.3154 8.89647 14.3208 9.90189 14.3208 11.8746V18.8723H16.2935V12.3953C16.2935 10.0501 17.5593 8.89647 19.2336 8.89647C21.0941 8.89647 22.0995 9.90189 22.0995 11.8746V18.8723H24.0723V11.6503C24.0723 8.85837 22.5081 7.146 19.9024 7.146C18.0779 7.146 16.8121 7.81698 16.1792 9.08274C16.1411 9.26901 16.0671 9.30711 15.9549 9.30711C15.8808 9.30711 15.7686 9.26901 15.6945 9.15894C15.0616 7.89318 13.834 7.14811 12.1216 7.14811C10.6315 7.14811 9.59007 7.66881 8.8831 8.67423C8.80902 8.82239 8.73494 8.89859 8.65874 8.89859C8.54656 8.89859 8.51057 8.82451 8.51057 8.71233V7.48466H6.53784V18.8723H6.54208Z" fill="#252429"/>
<path d="M44.7523 11.1717L39.3209 1.83933C38.7113 0.791579 37.5895 0.145996 36.3767 0.145996H3.88801C1.35648 0.145996 0.164795 1.33768 0.164795 3.86921V22.4832C0.164795 25.0147 1.35648 26.2064 3.88801 26.2064H36.3788C37.5916 26.2064 38.7135 25.5608 39.3231 24.513L44.7544 15.1807C45.4741 13.9424 45.4741 12.4121 44.7523 11.1717ZM43.658 13.3519L37.253 24.3564C37.1895 24.4643 37.0752 24.53 36.9503 24.53H2.35766C2.23701 24.53 2.13752 24.4326 2.13752 24.3098V2.04253C2.13752 1.92188 2.23489 1.82239 2.35766 1.82239H36.9503C37.0752 1.82239 37.1916 1.88801 37.253 1.99596L43.658 13.0005C43.7215 13.1106 43.7215 13.2439 43.658 13.3519Z" fill="#252429"/>
<path d="M34.9393 15.2613C34.4927 16.6392 33.5613 17.4584 31.6627 17.4584C29.3174 17.4584 27.8654 16.0063 27.7172 13.7352H36.7998V12.3953C36.7998 10.4967 36.0188 8.82239 34.3805 7.85296C33.5994 7.36824 32.594 7.146 31.4404 7.146C29.0952 7.146 27.3087 8.15141 26.3393 9.97597C25.8546 10.8692 25.6323 11.9487 25.6323 13.1764C25.6323 15.6338 26.6737 17.4944 28.4983 18.4617C29.3915 18.9464 30.471 19.2067 31.6627 19.2067C34.8271 19.2067 36.4654 17.3822 37.0242 15.2613H34.9393ZM31.4404 8.89648C33.6375 8.89648 34.6049 10.0882 34.6049 12.0609H27.7553C28.0157 10.0501 29.3915 8.89648 31.4404 8.89648Z" fill="#252429"/>
</svg>
